<svg xmlns="http://www.w3.org/2000/svg" viewBox="0 0 180 113.79"><defs><style>.cls-1{fill:#91ff24;}</style></defs><g id="레이어_2" data-name="레이어 2"><g id="레이어_1-2" data-name="레이어 1"><path class="cls-1" d="M47.43,30.88l19.11-5.12C79.39,22.32,82.17,30,80.32,39.1c-2.24,11.12-9.94,19.82-23.38,23.42L40.16,67ZM53.9,54.72l4.18-1.12A14.28,14.28,0,0,0,68.44,42.16c.46-2.28,1.06-8.57-7.61-6.25l-3.34.9Z"/><path class="cls-1" d="M7.27,41.65l19.11-5.12C39.22,33.08,42,40.74,40.16,49.87,37.91,61,30.22,69.69,16.78,73.29L0,77.79Zm6.47,23.83,4.18-1.12A14.31,14.31,0,0,0,28.28,52.93c.46-2.28,1-8.57-7.61-6.25l-3.34.89Z"/><path class="cls-1" d="M126.18,9.78,138.9,6.36l7.91,16.14.17,0,3.89-19.3L162.66,0l-7.27,36.15-12.17,3.26-8.33-16.5-.25.07-4,19.79-11.75,3.15Z"/><path class="cls-1" d="M64.77,66.88l19.11-5.12C96.72,58.32,99.51,66,97.66,75.1c-2.25,11.12-9.94,19.82-23.38,23.42L57.5,103Zm6.47,23.84,4.18-1.13A14.29,14.29,0,0,0,85.78,78.16c.46-2.28,1-8.57-7.61-6.25l-3.34.9Z"/><path class="cls-1" d="M24.61,77.64l19.1-5.11c12.85-3.45,15.64,4.21,13.78,13.34C55.25,97,47.56,105.69,34.12,109.29l-16.78,4.5Zm6.46,23.84,4.19-1.12A14.28,14.28,0,0,0,45.61,88.93c.47-2.28,1.06-8.57-7.61-6.25l-3.33.89Z"/><path class="cls-1" d="M143.52,45.78l12.72-3.42,7.91,16.14.17,0,3.89-19.3L180,36l-7.27,36.15-12.18,3.26-8.32-16.5L152,59l-4,19.79-11.75,3.15Z"/><path class="cls-1" d="M118.4,65.46l-.13,0L104.86,90.33,92.37,93.67l22-40.12,13.07-3.49,7.2,32.3-12.49,3.35Z"/><path class="cls-1" d="M101,29.47l-.12,0L87.5,54.33,75,57.67,97,17.55l13.07-3.49,7.19,32.3-12.48,3.35Z"/></g></g></svg>