<svg width="497" height="35" viewBox="0 0 497 35" fill="none" xmlns="http://www.w3.org/2000/svg">
<path d="M18.1832 17.356H30.8552V13.576H26.6792C27.3632 9.976 27.3272 7.204 27.3272 4.756V2.128H4.5392V5.908H22.6472C22.6472 8.104 22.5392 10.516 21.9272 13.576H0.831203V17.356H13.4312V21.424C7.6352 21.892 4.1792 24.124 4.1792 27.724C4.1792 31.792 8.6072 34.132 15.8072 34.132C23.0072 34.132 27.4712 31.792 27.4712 27.724C27.4712 24.124 23.9792 21.892 18.1832 21.424V17.356ZM22.6832 27.724C22.6832 29.56 20.3072 30.352 15.8072 30.352C11.3072 30.352 8.9672 29.56 8.9672 27.724C8.9672 25.96 11.2352 25.096 15.8072 25.096C20.3072 25.096 22.6832 25.888 22.6832 27.724ZM63.9724 14.368H59.6884C60.4444 10.516 60.4444 7.78 60.4444 5.08V2.416H37.6564V6.196H55.7644C55.7644 8.5 55.6564 11.056 54.9724 14.368H33.9484V18.148H63.9724V14.368ZM37.4764 21.604V33.7H60.3004V21.604H37.4764ZM42.1564 29.992V25.312H55.6564V29.992H42.1564ZM86.5776 8.14L86.6136 4.432H79.1976V0.903999H74.4096V4.432H67.0656V8.14H86.5776ZM97.5576 11.056H93.1656V0.939999H88.4136V25.744H93.1656V14.98H97.5576V11.056ZM84.9576 15.7C84.9576 11.956 81.5376 9.328 76.8216 9.328C72.0336 9.328 68.6856 11.956 68.6856 15.7C68.6856 19.516 72.0336 22.108 76.8216 22.108C81.5376 22.108 84.9576 19.516 84.9576 15.7ZM73.2216 15.7C73.2216 13.864 74.6616 12.928 76.8216 12.928C78.9816 12.928 80.4216 13.864 80.4216 15.7C80.4216 17.536 78.9816 18.508 76.8216 18.508C74.6616 18.508 73.2216 17.536 73.2216 15.7ZM76.5336 29.74V23.908H71.7816V33.52H94.3536V29.74H76.5336ZM135.951 0.903999H131.163V34.06H135.951V0.903999ZM126.087 4.36H110.175V8.14H121.227C120.543 15.484 116.871 20.704 108.411 24.736L110.895 28.48C122.667 22.828 126.087 14.476 126.087 4.36ZM168.132 12.964V9.184H149.988V1.516H145.236V12.964H168.132ZM171.48 15.772H141.492V19.552H171.48V15.772ZM156.36 21.712C149.196 21.712 144.876 23.98 144.876 27.868C144.876 31.756 149.196 34.024 156.36 34.024C163.524 34.024 167.88 31.756 167.88 27.868C167.88 23.98 163.524 21.712 156.36 21.712ZM156.36 30.388C151.896 30.388 149.664 29.56 149.664 27.868C149.664 26.176 151.896 25.348 156.36 25.348C160.824 25.348 163.056 26.176 163.056 27.868C163.056 29.56 160.824 30.388 156.36 30.388ZM202.221 0.903999H197.469V34.168H202.221V0.903999ZM185.229 3.136C180.045 3.136 176.121 6.556 176.121 11.308C176.121 16.06 180.045 19.48 185.229 19.48C190.413 19.48 194.373 16.06 194.373 11.308C194.373 6.556 190.413 3.136 185.229 3.136ZM185.229 7.204C187.821 7.204 189.729 8.716 189.729 11.308C189.729 13.9 187.821 15.412 185.229 15.412C182.637 15.412 180.729 13.9 180.729 11.308C180.729 8.716 182.637 7.204 185.229 7.204ZM174.717 23.584L175.329 27.436C181.053 27.436 188.829 27.364 195.957 25.924L195.669 22.504C188.685 23.548 180.549 23.584 174.717 23.584ZM243.675 0.903999H238.923V12.568H232.983V3.532H228.303V11.524H221.787V3.532H217.071V26.356H232.983V16.384H238.923V34.168H243.675V0.903999ZM228.303 15.232V22.576H221.787V15.232H228.303ZM275.748 16.852V13.288H257.388V11.128H274.74V7.672H257.388V5.584H275.532V1.984H252.672V16.852H275.748ZM278.952 18.832H248.928V22.576H278.952V18.832ZM257.28 29.74V24.268H252.528V33.52H275.928V29.74H257.28ZM297.057 12.712C304.941 12.712 309.081 10.804 309.081 7.06C309.081 3.424 304.941 1.408 297.057 1.408C289.245 1.408 285.069 3.424 285.069 7.06C285.069 10.804 289.245 12.712 297.057 12.712ZM297.057 4.9C301.989 4.9 304.149 5.584 304.149 7.06C304.149 8.608 301.989 9.256 297.057 9.256C292.269 9.256 290.001 8.608 290.001 7.06C290.001 5.584 292.269 4.9 297.057 4.9ZM312.033 14.296H282.081V18.004H312.033V14.296ZM290.253 30.28V28.408H308.397V19.876H285.501V23.368H303.717V25.132H285.537V33.844H309.261V30.28H290.253ZM349.923 11.344V7.6H331.815V1.264H327.063V11.344H349.923ZM340.635 17.032H353.379V13.288H323.355V17.032H335.919V19.552H326.739V23.116H345.063V24.952H326.775V33.844H350.787V30.28H331.563V28.264H349.851V19.552H340.635V17.032ZM384.228 0.903999H379.44V12.856H374.256V16.708H379.44V34.168H384.228V0.903999ZM362.304 22.612V16.168H372.492V3.748H357.552V7.528H367.776V12.46H357.624V26.5H360.36C365.832 26.5 370.296 26.284 375.192 25.528L374.76 21.676C370.584 22.36 366.804 22.576 362.304 22.612ZM419.613 26.392H406.941V20.308H416.337V2.992H411.657V8.14H397.473V2.992H392.757V20.308H402.189V26.392H389.589V30.244H419.613V26.392ZM397.473 16.528V11.884H411.657V16.528H397.473ZM451.146 0.939999H446.646V34.096H451.146V0.939999ZM439.914 1.48V12.136H435.774V15.988H439.914V32.62H444.342V1.48H439.914ZM433.29 9.22V3.82H428.718V9.4C428.718 15.052 426.954 20.992 422.094 23.944L424.938 27.508C427.962 25.672 429.87 22.612 431.022 18.868C432.066 22.216 433.758 25.024 436.638 26.752L439.23 23.08C434.73 20.092 433.29 14.584 433.29 9.22ZM485.847 26.392H479.187V18.292C481.671 16.744 483.183 14.368 483.183 11.488C483.183 6.052 477.963 2.56 470.799 2.56C463.707 2.56 458.451 6.052 458.451 11.488C458.415 14.368 459.855 16.744 462.447 18.292V26.392H455.823V30.244H485.847V26.392ZM470.799 6.304C475.407 6.304 478.503 8.176 478.503 11.488C478.503 14.8 475.407 16.672 470.799 16.672C466.191 16.672 463.131 14.8 463.131 11.488C463.131 8.176 466.191 6.304 470.799 6.304ZM467.163 26.392V20.056C468.315 20.272 469.539 20.38 470.799 20.38C472.095 20.38 473.319 20.272 474.471 20.056V26.392H467.163ZM495.781 23.368L496.537 8.644L496.717 3.64H491.389L491.569 8.644L492.325 23.368H495.781ZM496.717 31.504V26.392H491.461V31.504H496.717Z" fill="white"/>
</svg>
