<svg xmlns="http://www.w3.org/2000/svg" viewBox="0 0 642.84 29.15"><defs><style>.cls-1{fill:#e6e6e6;}</style></defs><g id="레이어_2" data-name="레이어 2"><g id="레이어_1-2" data-name="레이어 1"><path class="cls-1" d="M1.86,23.36,0,21c4.13-2.33,6.62-5,8-8.22l-7.49.8L.06,10.75l8.83-.51A24.92,24.92,0,0,0,9.5,6.3h-8V3.65H12.7C12.7,11.46,10.56,18.5,1.86,23.36Zm22.75,5.79H21.44V14.3h-3.3V27.81H15V.9h3.1V11.62h3.3V.19h3.17Z"/><path class="cls-1" d="M33.28,16.51H30.85V7.78h9.92V4.51h-10V1.86H44v8.41H34.11v3.55A75.59,75.59,0,0,0,46.88,13l.38,2.66A79.33,79.33,0,0,1,33.28,16.51Zm19.9,2.85v9.79H49.89v-7.1H33.7V19.36Zm0-1.41H49.89V.19h3.29Z"/><path class="cls-1" d="M75.07,18.88l.29,2.65a67.15,67.15,0,0,1-13,.87H60.1V2.72H73.5V5.44H63.39v5.41h8.93v2.62H63.39v6.24A68.67,68.67,0,0,0,75.07,18.88Zm7.74,10.27H79.49V13.5H74V10.78h5.54V.16h3.32Z"/><path class="cls-1" d="M105.73,19.58,106,22A108.11,108.11,0,0,1,88.38,23.1l-.45-2.72c2.18,0,4.68,0,7.27-.06V15.77c-3.59-.67-6.11-3.23-6.11-6.81,0-4.1,3.29-6.94,7.74-6.94s7.71,2.84,7.71,6.94c0,3.62-2.46,6.11-6.05,6.78v4.45A67.06,67.06,0,0,0,105.73,19.58Zm-8.9-6.52c2.69,0,4.51-1.54,4.51-4.1s-1.82-4.13-4.51-4.13S92.29,6.4,92.29,9,94.14,13.06,96.83,13.06Zm13.89,1.56V29.09h-3.3V.22h3.3V11.87H115v2.75Z"/><path class="cls-1" d="M124.9,5.7V3.07h6.87V0h3.3V3.07H142V5.7Zm8.51,11.55c-4.16,0-7-2-7-5.19s2.85-5.18,7-5.18,7,2.08,7,5.18S137.6,17.25,133.41,17.25Zm14,1.85v9.67H129V19.1Zm-14-4.32c2.3,0,3.87-1,3.87-2.72s-1.57-2.68-3.87-2.68-3.84,1-3.84,2.68S131.1,14.78,133.41,14.78Zm10.78,11.36V21.69h-12v4.45Zm3.23-15.77v7.26h-3.29V.22h3.29V7.65h4.1v2.72Z"/><path class="cls-1" d="M156.67,22.62l-2.53-1.44c3.27-4.54,4.16-9.44,4.42-14.91h-3.65V3.58h6.43C161.34,10.27,160.61,16.9,156.67,22.62ZM173.63.9V27.71h-3.1V14H167a25.75,25.75,0,0,1-3.94,10.27l-2.56-1.44c3.55-5.09,4.29-11,4.39-16.58h-2.66V3.58h5.47a70.72,70.72,0,0,1-.35,7.75h3.14V.9Zm5.5,28.25H176V.19h3.13Z"/><path class="cls-1" d="M196.06,3.1V14.24h.1l9-11.14h4.13L202,12.19l8.51,14.46h-4.13l-6.65-11.51-3.62,4.41v7.1h-3.71V3.1Z"/><path class="cls-1" d="M223,13.5v2.72H212.09V13.5Z"/><path class="cls-1" d="M234.78,3.1c5.25,0,9,1.83,9,7.11s-3.74,7.52-8.86,7.52h-3.55v8.92h-3.71V3.1Zm5.34,7.11c0-3.11-2-4.13-5.69-4.13h-3.07v8.67h3.2C238.43,14.75,240.12,13.31,240.12,10.21Z"/><path class="cls-1" d="M247.1,14.78c0-7.58,4.19-12.12,10.24-12.12s10.27,4.54,10.27,12.12-4.22,12.29-10.27,12.29S247.1,22.37,247.1,14.78Zm16.7,0c0-5.53-2.55-8.89-6.46-8.89s-6.43,3.36-6.43,8.89,2.53,9.06,6.43,9.06S263.8,20.32,263.8,14.78Z"/><path class="cls-1" d="M279.61,3.1c5.25,0,9,1.83,9,7.11s-3.74,7.52-8.86,7.52h-3.55v8.92h-3.71V3.1ZM285,10.21c0-3.11-2-4.13-5.7-4.13h-3.07v8.67h3.2C283.26,14.75,285,13.31,285,10.21Z"/><path class="cls-1" d="M325.12,25.69H298.88V23h11.39V17h-9.12V14.37h4.16V5.47h-4.26V2.82h21.73V5.47h-4.26v8.9h4.2V17h-9.16V23h11.56Zm-9.86-11.32V5.47H308.6v8.9Z"/><path class="cls-1" d="M336.57,16.61c-4.35,0-7.68-3-7.68-7.23s3.33-7.24,7.68-7.24,7.65,3,7.65,7.24S340.92,16.61,336.57,16.61Zm0-2.85A4.25,4.25,0,0,0,341,9.38a4.45,4.45,0,0,0-8.9,0A4.23,4.23,0,0,0,336.57,13.76ZM353,28.57H333.28V19.1h3.33v6.79H353Zm-4.13-7.36V.22h3.3v21Z"/><path class="cls-1" d="M384,25.57H357.79V22.88H384Zm-23-7.43V2.56h19.81V5.22H364.38V8.93h15.81v2.59H364.38v4h16.67v2.65Z"/><path class="cls-1" d="M402.43,16.61c-4.35,0-7.68-3-7.68-7.23s3.33-7.2,7.68-7.2,7.71,3,7.71,7.2S406.81,16.61,402.43,16.61Zm0-2.85a4.24,4.24,0,0,0,4.48-4.38,4.47,4.47,0,0,0-8.93,0A4.22,4.22,0,0,0,402.43,13.76Zm15.68,12.13v2.68H398.65V19.23H402v6.66Zm2.94-14.37H417v9.89h-3.3V.22H417V8.8h4.09Z"/><path class="cls-1" d="M438.46,19.39v9.73h-3.3V19.39H423.8V16.73H450v2.66ZM427,13.18V1.76h19.75V13.18Zm3.27-8.8v6.15h13.21V4.38Z"/><path class="cls-1" d="M479.45,15.9h-26.2V13.47h26.2Zm-2.33,10.63V28.8H456.35V22.17H473v-2h-16.7V17.85h20v6.47H459.61v2.21ZM456.54,3.2V.93h19.62V7.3H459.84v2h16.83v2.31H456.61V5.15h16.28V3.2Z"/><path class="cls-1" d="M505.76,8.83c0,4.1-3.27,6.94-7.65,6.94s-7.68-2.84-7.68-6.94,3.23-6.94,7.68-6.94S505.76,4.74,505.76,8.83Zm-12.1,0c0,2.56,1.86,4.16,4.45,4.16s4.45-1.6,4.45-4.16-1.89-4.16-4.45-4.16S493.66,6.27,493.66,8.83Zm20,20.32H510.4V21.47H494.21V18.78h19.48Zm0-11.84H510.4V.22h3.29Z"/><path class="cls-1" d="M519.33,7.36V4.67h6.81V.58h3.3V4.67h6.65V7.36Zm15.29,8.8a6.83,6.83,0,0,1-13.66,0,6.83,6.83,0,0,1,13.66,0Zm-3,0a3.83,3.83,0,1,0-7.65,0,3.83,3.83,0,1,0,7.65,0Zm11.71,13H540V19.68h-4.32V17H540V12.51h-4.39V9.79H540V.22h3.32Z"/><path class="cls-1" d="M574.94,25.6H548.76V22.88h11.4V17.06h-8.45V2.14H555V7h13.7V2.14h3.26V17.06h-8.48v5.82h11.49Zm-6.27-11.2V9.66H555V14.4Z"/><path class="cls-1" d="M592.7,19.93l-1.86,2.56c-2.68-1.63-4.35-4.41-5.34-7.64-1,3.61-2.88,6.59-5.7,8.28l-2-2.49c4.09-2.47,6.08-7.62,6.08-12.54V2.88h3.2V7.94C587.07,12.64,588.83,17.44,592.7,19.93ZM597,.77v27h-3.11V13H589.6V10.34h4.25V.77Zm5.92,28.35h-3.14V.22h3.14Z"/><path class="cls-1" d="M633.82,25.57H607.65V22.88h6.11V15.36a6.63,6.63,0,0,1-3.68-5.92c0-4.61,4.45-7.55,10.62-7.55s10.62,2.94,10.62,7.55a6.67,6.67,0,0,1-3.68,5.92v7.52h6.18ZM613.28,9.44c0,3.07,3,5,7.42,5s7.39-1.92,7.39-5-3-5-7.39-5S613.28,6.4,613.28,9.44Zm11.07,13.44v-6.3a15.23,15.23,0,0,1-3.65.41,16.76,16.76,0,0,1-3.65-.38v6.27Z"/><path class="cls-1" d="M639.07,23.1h3.77v4h-3.77Zm.64-3L639.2,6.34l-.1-3.78h3.71l-.64,17.5Z"/></g></g></svg>