<svg width="612" height="35" viewBox="0 0 612 35" fill="none" xmlns="http://www.w3.org/2000/svg">
<path d="M27.8272 0.903999H23.0752V12.856H17.5312C16.8472 6.916 13.5352 3.244 9.07117 3.244C4.13917 3.244 0.503172 7.78 0.503172 15.052C0.503172 22.36 4.13917 26.932 9.07117 26.932C13.6792 26.932 17.0992 23.044 17.5672 16.708H23.0752V34.168H27.8272V0.903999ZM9.07117 22.612C6.62317 22.612 5.03917 19.984 5.03917 15.052C5.03917 10.12 6.62317 7.528 9.07117 7.528C11.5192 7.528 13.1392 10.12 13.1392 15.052C13.1392 19.984 11.5192 22.612 9.07117 22.612ZM60.8724 0.903999H56.0844V7.96H50.6484V11.776H56.0844V16.96H50.5764V20.776H56.0844V34.168H60.8724V0.903999ZM38.9484 22.864V16.528H48.9924V3.712H34.1964V7.492H44.3124V12.784H34.2684V26.788H36.9324C41.9364 26.788 46.1124 26.68 51.0084 25.924L50.6484 22.036C46.4724 22.648 42.9804 22.828 38.9484 22.864ZM81.2095 15.304C88.4095 15.304 93.1255 12.64 93.1255 8.428C93.1255 4.252 88.4095 1.552 81.2095 1.552C74.1175 1.552 69.2935 4.252 69.2935 8.428C69.2935 12.64 74.1175 15.304 81.2095 15.304ZM81.2095 5.332C85.4215 5.332 88.0135 6.376 88.0135 8.428C88.0135 10.48 85.4215 11.524 81.2095 11.524C76.9975 11.524 74.4415 10.48 74.4415 8.428C74.4415 6.376 76.9975 5.332 81.2095 5.332ZM96.2575 17.032H66.2335V20.812H79.0855V26.5H83.9455V20.812H96.2575V17.032ZM74.5495 29.74V23.584H69.7255V33.52H92.9815V29.74H74.5495ZM137.495 20.776V16.96H133.139C133.967 12.316 133.967 8.968 133.967 5.836V2.848H110.963V6.664H129.323C129.323 9.544 129.251 12.748 128.423 16.96H107.543V20.776H119.927V34.096H124.751V20.776H137.495ZM171.116 10.192H166.688V0.939999H161.936V24.664H166.688V14.08H171.116V10.192ZM157.76 3.424H141.812V7.204H152.612C151.856 11.848 147.896 15.7 140.372 17.716L142.352 21.496C152.252 18.616 157.76 12.46 157.76 3.424ZM150.056 29.74V22.288H145.304V33.52H167.84V29.74H150.056ZM204.233 10.516H199.841V0.939999H195.089V25.132H199.841V14.404H204.233V10.516ZM190.517 19.66V3.676H174.713V19.66H190.517ZM185.837 7.42V15.916H179.357V7.42H185.837ZM183.209 29.74V22.756H178.457V33.52H201.029V29.74H183.209ZM242.483 0.939999H237.731V34.096H242.483V0.939999ZM227.831 9.868V8.032H234.671V4.108H216.095V8.032H223.007V9.868C223.007 15.52 220.343 21.604 214.763 24.088L217.463 27.868C221.351 26.104 224.015 22.504 225.491 18.148C226.967 22.216 229.559 25.348 233.447 27.04L236.039 23.296C230.495 20.992 227.831 15.268 227.831 9.868ZM271.1 8.932H266.132V12.784H271.1V20.668H275.852V0.939999H271.1V8.932ZM265.808 19.768L268.112 16.06C263.072 14.404 260.732 10.48 260.624 6.736H267.068V2.92H249.248V6.736H255.764C255.584 10.876 253.244 15.088 247.952 16.924L250.364 20.668C254.252 19.372 256.844 16.672 258.284 13.324C259.724 16.24 262.208 18.58 265.808 19.768ZM264.656 21.388C257.6 21.388 253.28 23.728 253.28 27.76C253.28 31.792 257.6 34.132 264.656 34.132C271.676 34.132 275.996 31.792 275.996 27.76C275.996 23.728 271.676 21.388 264.656 21.388ZM264.656 30.532C260.228 30.532 258.032 29.596 258.032 27.76C258.032 25.924 260.228 24.988 264.656 24.988C269.048 24.988 271.244 25.924 271.244 27.76C271.244 29.596 269.048 30.532 264.656 30.532ZM309.689 0.903999H305.189V14.44H302.669V1.552H298.241V32.692H302.669V18.256H305.189V34.06H309.689V0.903999ZM291.545 5.944V1.84H286.865V5.944H281.213V9.724H297.053V5.944H291.545ZM289.205 11.164C284.993 11.164 281.933 14.44 281.933 19.084C281.933 23.692 284.993 26.968 289.205 26.968C293.417 26.968 296.477 23.692 296.477 19.084C296.477 14.44 293.417 11.164 289.205 11.164ZM289.205 23.008C287.369 23.008 286.109 21.568 286.109 19.084C286.109 16.6 287.369 15.124 289.205 15.124C291.041 15.124 292.301 16.6 292.301 19.084C292.301 21.568 291.041 23.008 289.205 23.008ZM342.194 0.903999H337.442V11.308H331.07V15.124H337.442V34.168H342.194V0.903999ZM326.822 8.284V3.496H322.034V8.284C322.034 14.584 319.55 21.028 313.898 23.62L316.85 27.436C320.594 25.564 323.042 22.216 324.482 17.86C325.886 21.928 328.262 25.096 331.898 26.86L334.706 23.08C329.234 20.668 326.822 14.512 326.822 8.284ZM386.132 10.3H381.74V0.939999H376.988V25.348H381.74V14.188H386.132V10.3ZM372.488 20.164V3.316H367.808V8.032H361.292V3.316H356.612V20.164H372.488ZM367.808 11.704V16.42H361.292V11.704H367.808ZM365.108 29.74V22.936H360.356V33.52H382.928V29.74H365.108ZM418.745 17.32H406.073V14.584H414.929V1.804H410.213V4.72H397.289V1.804H392.573V14.584H401.321V17.32H388.757V21.1H418.745V17.32ZM397.289 10.876V8.284H410.213V10.876H397.289ZM392.069 23.368V27.148H410.357V34.132H415.109V23.368H392.069ZM441.386 6.952V3.388H434.006V0.687998H429.218V3.388H421.838V6.952H441.386ZM452.366 7.96H447.974V0.903999H443.222V18.832H447.974V11.848H452.366V7.96ZM439.766 13.18C439.766 9.832 436.562 7.744 431.63 7.744C426.734 7.744 423.494 9.832 423.494 13.18C423.494 16.492 426.734 18.58 431.63 18.58C436.562 18.58 439.766 16.492 439.766 13.18ZM428.03 13.18C428.03 11.776 429.434 11.092 431.63 11.092C433.826 11.092 435.23 11.776 435.23 13.18C435.23 14.584 433.826 15.232 431.63 15.232C429.434 15.232 428.03 14.584 428.03 13.18ZM430.838 30.388V28.552H447.974V20.128H426.086V23.584H443.294V25.312H426.122V33.844H448.91V30.388H430.838ZM490.256 16.528L492.056 12.712C484.568 11.668 480.716 7.384 480.716 3.496V1.912H475.64V3.496C475.64 7.384 471.896 11.668 464.3 12.712L466.1 16.528C471.896 15.664 476.036 13 478.196 9.4C480.356 13 484.46 15.664 490.256 16.528ZM493.136 22.828V18.976H463.184V22.828H475.676V34.132H480.428V22.828H493.136ZM531.961 19.696V0.939999H527.173V19.696H531.961ZM513.889 18.544C519.073 18.544 522.925 15.232 522.925 10.588C522.925 5.944 519.073 2.632 513.889 2.632C508.777 2.632 504.889 5.944 504.889 10.588C504.889 15.232 508.777 18.544 513.889 18.544ZM513.889 6.592C516.481 6.592 518.281 8.104 518.281 10.588C518.281 13.072 516.481 14.584 513.889 14.584C511.297 14.584 509.533 13.072 509.533 10.588C509.533 8.104 511.297 6.592 513.889 6.592ZM528.613 22.18V21.064H523.933V22.18C523.933 24.628 522.889 27.364 520.153 29.38C517.525 27.544 516.481 24.808 516.481 22.18V21.064H511.873V22.18C511.873 25.348 510.109 28.696 505.681 30.136L508.021 33.592C511.045 32.476 513.025 30.604 514.177 28.156C515.293 30.748 517.165 32.836 520.189 33.952C523.213 32.764 525.085 30.64 526.201 28.048C527.317 30.64 529.297 32.548 532.465 33.592L534.805 30.136C530.377 28.804 528.613 25.6 528.613 22.18ZM565.366 0.903999H560.614V12.856H555.07C554.386 6.916 551.074 3.244 546.61 3.244C541.678 3.244 538.042 7.78 538.042 15.052C538.042 22.36 541.678 26.932 546.61 26.932C551.218 26.932 554.638 23.044 555.106 16.708H560.614V34.168H565.366V0.903999ZM546.61 22.612C544.162 22.612 542.578 19.984 542.578 15.052C542.578 10.12 544.162 7.528 546.61 7.528C549.058 7.528 550.678 10.12 550.678 15.052C550.678 19.984 549.058 22.612 546.61 22.612ZM600.679 26.392H594.019V18.292C596.503 16.744 598.015 14.368 598.015 11.488C598.015 6.052 592.795 2.56 585.631 2.56C578.539 2.56 573.283 6.052 573.283 11.488C573.247 14.368 574.687 16.744 577.279 18.292V26.392H570.655V30.244H600.679V26.392ZM585.631 6.304C590.239 6.304 593.335 8.176 593.335 11.488C593.335 14.8 590.239 16.672 585.631 16.672C581.023 16.672 577.963 14.8 577.963 11.488C577.963 8.176 581.023 6.304 585.631 6.304ZM581.995 26.392V20.056C583.147 20.272 584.371 20.38 585.631 20.38C586.927 20.38 588.151 20.272 589.303 20.056V26.392H581.995ZM610.613 23.368L611.369 8.644L611.549 3.64H606.221L606.401 8.644L607.157 23.368H610.613ZM611.549 31.504V26.392H606.293V31.504H611.549Z" fill="white"/>
</svg>
