<svg width="452" height="35" viewBox="0 0 452 35" fill="none" xmlns="http://www.w3.org/2000/svg">
<path d="M30.0759 26.644H22.5879V20.416H27.5199V16.672H23.0919V7.348H27.5919V3.568H2.39191V7.348H6.89191V16.672H2.57191V20.416H7.43191V26.644H0.0159064V30.46H30.0759V26.644ZM11.6079 16.672V7.348H18.3759V16.672H11.6079ZM12.1479 26.644V20.416H17.8719V26.644H12.1479ZM60.6371 0.903999H55.8851V34.168H60.6371V0.903999ZM46.0211 8.32V3.496H41.2691V8.32C41.2691 14.8 38.5331 21.136 32.7371 23.656L35.5811 27.58C39.6491 25.708 42.2411 22.216 43.7171 17.716C45.1931 21.784 47.6771 25.06 51.5651 26.788L54.2651 22.936C48.6491 20.524 46.0211 14.476 46.0211 8.32ZM93.8983 25.888V0.903999H89.1103V25.888H93.8983ZM87.4543 20.992L87.1303 17.608C84.6823 17.86 82.1983 18.004 79.6063 18.112V14.872H85.4023V11.092H73.9183V6.7H85.1863V2.92H69.1663V14.872H74.8543V18.292C71.9383 18.4 69.0583 18.364 66.4303 18.364L67.0423 22.144C73.9903 22.144 80.5783 21.964 87.4543 20.992ZM94.7623 29.74H76.2223V24.088H71.4343V33.52H94.7623V29.74ZM128.44 13.612L133.12 14.08C133.948 10.48 133.948 7.636 133.948 5.044V2.416H110.98V6.196H129.196C129.16 8.356 129.124 10.588 128.44 13.612ZM137.476 15.88H123.436V9.76H118.684V15.88H107.596V19.66H137.476V15.88ZM124.768 22.576V21.604H120.016V22.576C120.016 25.924 116.704 29.452 109.324 30.316L111.052 33.988C116.56 33.232 120.376 31.144 122.428 28.12C124.444 31.144 128.26 33.232 133.768 33.988L135.496 30.316C128.08 29.452 124.768 25.996 124.768 22.576ZM171.313 17.824V13.9H167.029V0.903999H162.241V34.06H167.029V17.824H171.313ZM150.433 4.324H141.469V8.14H145.933C145.645 14.8 144.421 19.552 139.993 24.448L143.701 27.148C149.569 20.596 150.433 13.468 150.433 4.324ZM159.577 4.324H151.549V8.14H155.113C154.825 15.52 153.709 21.028 149.281 26.608L153.025 29.236C158.785 22.036 159.577 13.936 159.577 4.324ZM201.262 0.939999H196.51V34.096H201.262V0.939999ZM186.61 9.868V8.032H193.45V4.108H174.874V8.032H181.786V9.868C181.786 15.52 179.122 21.604 173.542 24.088L176.242 27.868C180.13 26.104 182.794 22.504 184.27 18.148C185.746 22.216 188.338 25.348 192.226 27.04L194.818 23.296C189.274 20.992 186.61 15.268 186.61 9.868ZM241.888 20.02V16.24H223.312V7.528H241.636V3.676H218.56V20.02H241.888ZM245.092 26.248H215.068V30.136H245.092V26.248ZM276.625 0.903999H272.125V13.432H269.137V1.516H264.709V32.512H269.137V17.248H272.125V34.06H276.625V0.903999ZM253.693 22.864V16.996H261.577V4.144H249.049V7.96H257.005V13.252H249.085V26.752H251.425C255.421 26.752 258.985 26.644 263.269 25.96L262.909 22.108C259.597 22.648 256.717 22.756 253.693 22.864ZM302.866 7.78V7.924C302.866 12.424 302.83 17.14 301.678 23.476L306.394 23.908C307.654 17.104 307.618 12.568 307.618 7.924V4H284.398V7.78H302.866ZM311.29 25.888H281.302V29.776H311.29V25.888ZM351.015 0.903999H346.515V14.44H343.995V1.552H339.567V32.692H343.995V18.256H346.515V34.06H351.015V0.903999ZM332.871 5.944V1.84H328.191V5.944H322.539V9.724H338.379V5.944H332.871ZM330.531 11.164C326.319 11.164 323.259 14.44 323.259 19.084C323.259 23.692 326.319 26.968 330.531 26.968C334.743 26.968 337.803 23.692 337.803 19.084C337.803 14.44 334.743 11.164 330.531 11.164ZM330.531 23.008C328.695 23.008 327.435 21.568 327.435 19.084C327.435 16.6 328.695 15.124 330.531 15.124C332.367 15.124 333.627 16.6 333.627 19.084C333.627 21.568 332.367 23.008 330.531 23.008ZM385.717 26.392H373.045V20.308H382.441V2.992H377.761V8.14H363.577V2.992H358.861V20.308H368.293V26.392H355.693V30.244H385.717V26.392ZM363.577 16.528V11.884H377.761V16.528H363.577ZM417.25 0.939999H412.75V34.096H417.25V0.939999ZM406.018 1.48V12.136H401.878V15.988H406.018V32.62H410.446V1.48H406.018ZM399.394 9.22V3.82H394.822V9.4C394.822 15.052 393.058 20.992 388.198 23.944L391.042 27.508C394.066 25.672 395.974 22.612 397.126 18.868C398.17 22.216 399.862 25.024 402.742 26.752L405.334 23.08C400.834 20.092 399.394 14.584 399.394 9.22ZM451.951 26.392H445.291V18.292C447.775 16.744 449.287 14.368 449.287 11.488C449.287 6.052 444.067 2.56 436.903 2.56C429.811 2.56 424.555 6.052 424.555 11.488C424.519 14.368 425.959 16.744 428.551 18.292V26.392H421.927V30.244H451.951V26.392ZM436.903 6.304C441.511 6.304 444.607 8.176 444.607 11.488C444.607 14.8 441.511 16.672 436.903 16.672C432.295 16.672 429.235 14.8 429.235 11.488C429.235 8.176 432.295 6.304 436.903 6.304ZM433.267 26.392V20.056C434.419 20.272 435.643 20.38 436.903 20.38C438.199 20.38 439.423 20.272 440.575 20.056V26.392H433.267Z" fill="white"/>
</svg>
