<svg width="539" height="35" viewBox="0 0 539 35" fill="none" xmlns="http://www.w3.org/2000/svg">
<path d="M28.9145 0.939999H24.1625V13.648H17.7545V17.5H24.1625V34.096H28.9145V0.939999ZM17.9705 4.36H2.38248V8.14H13.1465C12.4625 15.34 9.07849 20.56 0.798484 24.7L3.31848 28.372C14.7305 22.612 17.9705 14.368 17.9705 4.36ZM49.2877 12.532C57.1717 12.532 61.3117 10.624 61.3117 6.88C61.3117 3.244 57.1717 1.228 49.2877 1.228C41.4757 1.228 37.2997 3.244 37.2997 6.88C37.2997 10.624 41.4757 12.532 49.2877 12.532ZM49.2877 4.72C54.2197 4.72 56.3797 5.404 56.3797 6.88C56.3797 8.428 54.2197 9.076 49.2877 9.076C44.4997 9.076 42.2317 8.428 42.2317 6.88C42.2317 5.404 44.4997 4.72 49.2877 4.72ZM51.6277 17.716H64.2637V13.972H34.3117V17.716H46.8757V19.876H37.7317V23.368H55.9477V25.132H37.7677V33.844H61.4917V30.28H42.4837V28.408H60.6277V19.876H51.6277V17.716ZM105.609 26.392H92.9371V19.66H102.333V3.388H78.7531V19.66H88.1851V26.392H75.5851V30.244H105.609V26.392ZM83.3971 15.916V7.132H97.6891V15.916H83.3971ZM135.522 20.02V16.24H116.946V7.528H135.27V3.676H112.194V20.02H135.522ZM138.726 26.248H108.702V30.136H138.726V26.248ZM163.491 4.72V6.34H145.563V14.26H168.747V11.056H150.243V9.328H168.171V1.516H145.491V4.72H163.491ZM171.843 15.844H141.819V19.264H171.843V15.844ZM149.955 30.604V28.804H168.279V20.92H145.203V24.124H163.563V25.816H145.239V33.808H169.179V30.604H149.955ZM213.045 18.04H200.409V15.988H209.877V12.388H191.517V10.588H208.869V7.132H191.517V5.404H209.625V1.804H186.801V15.988H195.657V18.04H183.057V21.748H213.045V18.04ZM197.997 23.224C190.473 23.224 186.513 25.06 186.513 28.66C186.513 32.26 190.473 34.096 197.997 34.096C205.593 34.096 209.517 32.26 209.517 28.66C209.517 25.06 205.593 23.224 197.997 23.224ZM197.997 30.64C193.353 30.64 191.301 30.064 191.301 28.66C191.301 27.256 193.353 26.716 197.997 26.716C202.641 26.716 204.729 27.256 204.729 28.66C204.729 30.064 202.641 30.64 197.997 30.64ZM244.65 0.903999H240.15V14.44H237.63V1.552H233.202V32.692H237.63V18.256H240.15V34.06H244.65V0.903999ZM226.506 5.944V1.84H221.826V5.944H216.174V9.724H232.014V5.944H226.506ZM224.166 11.164C219.954 11.164 216.894 14.44 216.894 19.084C216.894 23.692 219.954 26.968 224.166 26.968C228.378 26.968 231.438 23.692 231.438 19.084C231.438 14.44 228.378 11.164 224.166 11.164ZM224.166 23.008C222.33 23.008 221.07 21.568 221.07 19.084C221.07 16.6 222.33 15.124 224.166 15.124C226.002 15.124 227.262 16.6 227.262 19.084C227.262 21.568 226.002 23.008 224.166 23.008ZM287.976 10.444H283.584V0.939999H278.832V25.06H283.584V14.332H287.976V10.444ZM275.7 11.488C275.7 6.592 271.776 3.064 266.736 3.064C261.66 3.064 257.736 6.592 257.736 11.488C257.736 16.348 261.66 19.912 266.736 19.912C271.776 19.912 275.7 16.348 275.7 11.488ZM262.38 11.488C262.38 8.752 264.252 7.168 266.736 7.168C269.184 7.168 271.092 8.752 271.092 11.488C271.092 14.224 269.184 15.808 266.736 15.808C264.252 15.808 262.38 14.224 262.38 11.488ZM266.952 29.74V22.576H262.2V33.52H284.772V29.74H266.952ZM317.025 15.952V2.56H294.057V15.952H317.025ZM312.381 6.304V12.208H298.737V6.304H312.381ZM320.625 23.26V19.48H290.601V23.26H303.129V34.096H307.881V23.26H320.625ZM345.39 4.72V6.34H327.462V14.26H350.646V11.056H332.142V9.328H350.07V1.516H327.39V4.72H345.39ZM353.742 15.844H323.718V19.264H353.742V15.844ZM331.854 30.604V28.804H350.178V20.92H327.102V24.124H345.462V25.816H327.138V33.808H351.078V30.604H331.854ZM392.531 0.975998H387.743V20.416H392.531V0.975998ZM374.459 2.74C369.383 2.74 365.459 6.16 365.459 10.876C365.459 15.628 369.383 18.976 374.459 18.976C379.607 18.976 383.495 15.628 383.495 10.876C383.495 6.16 379.607 2.74 374.459 2.74ZM374.459 6.772C377.051 6.772 378.851 8.284 378.851 10.876C378.851 13.468 377.051 14.98 374.459 14.98C371.975 14.98 370.103 13.468 370.103 10.876C370.103 8.284 371.975 6.772 374.459 6.772ZM392.531 21.928H369.923V25.708H387.743V34.132H392.531V21.928ZM425.937 0.939999H421.185V11.92H416.685V15.736H421.185V20.092H416.757V23.944H421.185V34.096H425.937V0.939999ZM417.225 9.616V5.836H410.097V1.444H405.345V5.836H398.145V9.616H417.225ZM407.757 11.488C403.185 11.488 399.765 14.8 399.765 19.408C399.765 24.016 403.185 27.328 407.757 27.328C412.365 27.328 415.713 24.016 415.713 19.408C415.713 14.8 412.365 11.488 407.757 11.488ZM407.757 23.332C405.597 23.332 404.049 21.856 404.049 19.408C404.049 16.924 405.597 15.484 407.757 15.484C409.917 15.484 411.429 16.924 411.429 19.408C411.429 21.856 409.917 23.332 407.757 23.332ZM461.25 26.392H448.578V20.308H457.974V2.992H453.294V8.14H439.11V2.992H434.394V20.308H443.826V26.392H431.226V30.244H461.25V26.392ZM439.11 16.528V11.884H453.294V16.528H439.11ZM492.783 0.939999H488.283V34.096H492.783V0.939999ZM481.551 1.48V12.136H477.411V15.988H481.551V32.62H485.979V1.48H481.551ZM474.927 9.22V3.82H470.355V9.4C470.355 15.052 468.591 20.992 463.731 23.944L466.575 27.508C469.599 25.672 471.507 22.612 472.659 18.868C473.703 22.216 475.395 25.024 478.275 26.752L480.867 23.08C476.367 20.092 474.927 14.584 474.927 9.22ZM527.484 26.392H520.824V18.292C523.308 16.744 524.82 14.368 524.82 11.488C524.82 6.052 519.6 2.56 512.436 2.56C505.344 2.56 500.088 6.052 500.088 11.488C500.052 14.368 501.492 16.744 504.084 18.292V26.392H497.46V30.244H527.484V26.392ZM512.436 6.304C517.044 6.304 520.14 8.176 520.14 11.488C520.14 14.8 517.044 16.672 512.436 16.672C507.828 16.672 504.768 14.8 504.768 11.488C504.768 8.176 507.828 6.304 512.436 6.304ZM508.8 26.392V20.056C509.952 20.272 511.176 20.38 512.436 20.38C513.732 20.38 514.956 20.272 516.108 20.056V26.392H508.8ZM537.417 23.368L538.173 8.644L538.353 3.64H533.025L533.205 8.644L533.961 23.368H537.417ZM538.353 31.504V26.392H533.097V31.504H538.353Z" fill="white"/>
</svg>
