<svg width="413" height="150" viewBox="0 0 413 150" fill="none" xmlns="http://www.w3.org/2000/svg">
<path d="M201.686 61.0939L196.934 61.0939L196.934 73.8019L190.526 73.8019V77.6539L196.934 77.6539L196.934 94.2499L201.686 94.2499L201.686 61.0939ZM190.742 64.5139L175.154 64.5139L175.154 68.2939L185.918 68.2939C185.234 75.4939 181.85 80.7139 173.57 84.8539L176.09 88.5259C187.502 82.7659 190.742 74.5219 190.742 64.5139ZM222.06 72.6859C229.944 72.6859 234.084 70.7779 234.084 67.0339C234.084 63.3979 229.944 61.3819 222.06 61.3819C214.248 61.3819 210.072 63.3979 210.072 67.0339C210.072 70.7779 214.248 72.6859 222.06 72.6859ZM222.06 64.8739C226.992 64.8739 229.152 65.5579 229.152 67.0339C229.152 68.5819 226.992 69.2299 222.06 69.2299C217.272 69.2299 215.004 68.5819 215.004 67.0339C215.004 65.5579 217.272 64.8739 222.06 64.8739ZM224.4 77.8699L237.036 77.8699L237.036 74.1259L207.084 74.1259V77.8699L219.648 77.8699L219.648 80.0299L210.504 80.0299V83.5219L228.72 83.5219V85.2859L210.54 85.2859V93.9979L234.264 93.9979V90.4339L215.256 90.4339V88.5619L233.4 88.5619V80.0299L224.4 80.0299L224.4 77.8699ZM278.381 86.5459L265.709 86.5459V79.8139L275.105 79.8139L275.105 63.5419L251.525 63.5419L251.525 79.8139L260.957 79.8139V86.5459L248.357 86.5459V90.3979L278.381 90.3979V86.5459ZM256.169 76.0699V67.2859L270.461 67.2859V76.0699L256.169 76.0699ZM308.294 80.1739V76.3939L289.718 76.3939V67.6819L308.042 67.6819V63.8299L284.966 63.8299L284.966 80.1739L308.294 80.1739ZM311.498 86.4019L281.474 86.4019V90.2899L311.498 90.2899V86.4019Z" fill="#95FF22"/>
<path d="M121.565 49L121.565 98.8462" stroke="#92FF22" stroke-width="4" stroke-miterlimit="10" stroke-linecap="round" stroke-dasharray="10 10"/>
<path d="M100 57.3077L100 90.5384L122.154 73.9231L100 57.3077Z" stroke="#92FF22" stroke-width="4" stroke-miterlimit="10" stroke-linejoin="round"/>
<path d="M144.308 90.5384L144.308 57.3077L122.154 73.9231L144.308 90.5384Z" fill="#92FF22" stroke="#92FF22" stroke-width="4" stroke-miterlimit="10" stroke-linejoin="round"/>
</svg>
