<svg width="500" height="150" viewBox="0 0 500 150" fill="none" xmlns="http://www.w3.org/2000/svg">
<rect width="500" height="150" rx="10" fill="black"/>
<path d="M141.819 75.54C138.399 75 136.083 73.77 134.869 71.85C133.656 69.93 133.429 67.5433 134.189 64.69C134.763 62.4111 135.901 60.3133 137.499 58.59C139.111 56.8984 141.06 55.5631 143.219 54.67C145.634 53.696 148.16 53.0242 150.739 52.67C153.772 52.2225 156.834 51.9985 159.899 52C168.253 52 174.116 53.0533 177.489 55.16C180.869 57.27 182.139 60.42 181.299 64.64H163.579C163.698 64.341 163.754 64.0206 163.742 63.699C163.73 63.3774 163.652 63.0618 163.512 62.7721C163.372 62.4825 163.173 62.2251 162.928 62.0164C162.683 61.8078 162.397 61.6523 162.089 61.56C160.656 60.9513 159.104 60.6744 157.549 60.75C155.897 60.6645 154.244 60.9128 152.689 61.48C152.224 61.6358 151.801 61.8975 151.454 62.2446C151.107 62.5916 150.845 63.0146 150.689 63.48C150.379 64.64 150.869 65.3 152.159 65.48L169.629 68.18C173.429 68.76 176.169 69.98 177.829 71.85C179.489 73.72 179.889 76.24 179.039 79.41C178.451 81.6992 177.355 83.8269 175.834 85.6357C174.312 87.4446 172.404 88.8882 170.249 89.86C165.649 92.1133 159.083 93.24 150.549 93.24C147.499 93.2551 144.45 93.0915 141.419 92.75C138.959 92.49 136.55 91.8701 134.269 90.91C132.351 90.1392 130.76 88.7251 129.769 86.91C128.856 85.2033 128.756 83 129.469 80.3H147.829C147.66 80.793 147.656 81.3274 147.816 81.8232C147.977 82.319 148.293 82.7495 148.719 83.05C150.301 83.7007 152.012 83.9779 153.719 83.86C155.399 83.9604 157.08 83.6836 158.639 83.05C159.122 82.8324 159.55 82.512 159.896 82.1113C160.241 81.7105 160.495 81.2391 160.639 80.73C160.731 80.4524 160.76 80.1581 160.726 79.8678C160.691 79.5776 160.593 79.2984 160.439 79.05C160.208 78.779 159.924 78.5584 159.604 78.4019C159.284 78.2453 158.935 78.1562 158.579 78.14L141.819 75.54Z" fill="#95FF22"/>
<path d="M198.619 63.07H184.519L187.129 53.35H230.549L227.939 63.07H213.849L206.119 91.91H190.889L198.619 63.07Z" fill="#95FF22"/>
<path d="M249.239 65H249.129L232.419 91.9H216.219L242.999 53.35H261.679L267.759 91.91H251.559L249.239 65Z" fill="#95FF22"/>
<path d="M279.999 53.35H312.069C313.855 53.3251 315.64 53.4321 317.409 53.67C318.599 53.8329 319.752 54.1982 320.819 54.75C322.182 55.5699 323.169 56.8909 323.569 58.43C324.116 60.2804 324.116 62.2496 323.569 64.1C323.027 66.1104 322.039 67.973 320.679 69.55C319.259 71.1914 317.372 72.3602 315.269 72.9V73.01C315.793 73.1545 316.281 73.4071 316.701 73.7516C317.121 74.096 317.465 74.5247 317.709 75.01C318.244 76.2715 318.346 77.6745 317.999 79L316.389 87.42C316.249 88.224 316.249 89.0461 316.389 89.85C316.504 90.5887 316.744 91.3023 317.099 91.96H300.459C300.35 91.3885 300.35 90.8015 300.459 90.23C300.579 89.51 300.809 88.32 301.139 86.66C301.259 86.09 301.399 85.42 301.569 84.66C301.925 83.5376 301.886 82.3273 301.459 81.23C301.059 80.45 300.189 80.07 298.859 80.07H288.059L284.879 91.95H269.679L279.999 53.35ZM290.679 70.35H301.479C304.293 70.35 306.019 69.1434 306.659 66.73C307.029 65.36 306.899 64.42 306.259 63.89C305.359 63.2938 304.285 63.019 303.209 63.11H292.629L290.679 70.35Z" fill="#95FF22"/>
<path d="M339.499 63.07H325.409L327.999 53.35H371.419L368.819 63.07H354.719L346.999 91.91H331.779L339.499 63.07Z" fill="#95FF22"/>
</svg>
