<svg xmlns="http://www.w3.org/2000/svg" viewBox="0 0 2006.5 40"><defs><style>.cls-1{fill:none;stroke:#cbcbcb;stroke-miterlimit:10;stroke-width:5px;}.cls-2{fill:#cbcbcb;}</style></defs><g id="레이어_2" data-name="레이어 2"><g id="레이어_1-2" data-name="레이어 1"><line class="cls-1" x1="2.5" y1="20" x2="2002.5" y2="20"/><rect class="cls-2" x="1894.74" y="10" width="5" height="20" rx="2.5"/><rect class="cls-2" x="1789.47" y="10" width="5" height="20" rx="2.5"/><rect class="cls-2" y="10" width="5" height="20" rx="2.5"/><rect class="cls-2" x="1578.95" y="10" width="5" height="20" rx="2.5"/><rect class="cls-2" x="1684.21" y="10" width="5" height="20" rx="2.5"/><rect class="cls-2" x="1157.89" y="10" width="5" height="20" rx="2.5"/><rect class="cls-2" x="1263.16" y="10" width="5" height="20" rx="2.5"/><rect class="cls-2" x="1052.63" y="10" width="5" height="20" rx="2.5"/><rect class="cls-2" x="1368.42" y="10" width="5" height="20" rx="2.5"/><rect class="cls-2" x="526.32" y="10" width="5" height="20" rx="2.5"/><rect class="cls-2" x="631.58" y="10" width="5" height="20" rx="2.5"/><rect class="cls-2" x="736.84" y="10" width="5" height="20" rx="2.5"/><rect class="cls-2" x="842.11" y="10" width="5" height="20" rx="2.5"/><rect class="cls-2" x="315.79" y="10" width="5" height="20" rx="2.5"/><rect class="cls-2" x="105.26" y="10" width="5" height="20" rx="2.5"/><rect class="cls-2" x="210.53" y="10" width="5" height="20" rx="2.5"/><rect class="cls-2" x="419.55" width="8" height="40" rx="4"/><rect class="cls-2" x="945.87" width="8" height="40" rx="4"/><rect class="cls-2" x="1472.18" width="8" height="40" rx="4"/><rect class="cls-2" x="1998.5" width="8" height="40" rx="4"/></g></g></svg>