<svg width="637" height="35" viewBox="0 0 637 35" fill="none" xmlns="http://www.w3.org/2000/svg">
<path d="M27.1307 17.932V0.975998H22.3787V17.932H27.1307ZM20.2547 16.06L20.0387 12.712C18.7787 12.856 17.5187 12.964 16.1867 13.072V6.628H18.7787V2.956H0.922703V6.628H3.5507V13.54L0.0947033 13.576L0.562703 17.356C6.3227 17.356 13.7387 17.104 20.2547 16.06ZM8.1227 13.468V6.628H11.6147V13.324C10.4627 13.432 9.2747 13.432 8.1227 13.468ZM28.0667 30.172H9.4547V28.192H27.1307V19.264H4.7027V22.9H22.4147V24.808H4.7387V33.844H28.0667V30.172ZM62.6599 26.392H55.9999V18.292C58.4839 16.744 59.9959 14.368 59.9959 11.488C59.9959 6.052 54.7759 2.56 47.6119 2.56C40.5199 2.56 35.2639 6.052 35.2639 11.488C35.2279 14.368 36.6679 16.744 39.2599 18.292V26.392H32.6359V30.244H62.6599V26.392ZM47.6119 6.304C52.2199 6.304 55.3159 8.176 55.3159 11.488C55.3159 14.8 52.2199 16.672 47.6119 16.672C43.0039 16.672 39.9439 14.8 39.9439 11.488C39.9439 8.176 43.0039 6.304 47.6119 6.304ZM43.9759 26.392V20.056C45.1279 20.272 46.3519 20.38 47.6119 20.38C48.9079 20.38 50.1319 20.272 51.2839 20.056V26.392H43.9759ZM94.1931 0.903999H89.6931V34.06H94.1931V0.903999ZM82.9611 1.48V13.144H80.3331C79.7931 6.664 77.1291 3.28 73.2051 3.28C68.8131 3.28 66.0411 7.816 66.0411 15.304C66.0411 22.828 68.8131 27.364 73.2051 27.364C77.2731 27.364 79.9371 23.512 80.3691 16.996H82.9611V32.62H87.3891V1.48H82.9611ZM73.2051 22.9C71.3691 22.9 70.3251 20.524 70.3251 15.304C70.3251 10.228 71.3691 7.744 73.2051 7.744C75.0411 7.744 76.0851 10.228 76.0851 15.304C76.0851 20.524 75.0411 22.9 73.2051 22.9ZM137.591 17.248V13.324H133.667V0.868H128.915V34.132H133.667V17.248H137.591ZM112.355 22.036V8.032H116.207V4.252H107.675V25.996H109.367C111.995 25.996 114.119 25.96 116.747 25.42L116.387 21.568C114.947 21.82 113.651 21.928 112.355 22.036ZM122.615 22.036V8.032H126.863V4.252H117.935V25.996H119.699C123.623 25.996 125.495 25.924 127.619 25.348L127.259 21.532C125.819 21.856 124.523 22 122.615 22.036ZM170.924 17.356V13.432H166.172V0.903999H161.42V34.168H166.172V17.356H170.924ZM146.192 22.576V16.564H156.704V3.748H141.476V7.528H152.024V12.82H141.512V26.5H144.32C150.08 26.5 154.616 26.248 159.62 25.384L159.188 21.532C154.868 22.288 150.944 22.54 146.192 22.576ZM208.021 14.62L209.749 10.912C202.261 10.048 198.769 6.304 198.769 2.488V1.516H193.909V2.488C193.909 6.232 190.381 10.048 182.893 10.912L184.657 14.62C190.309 13.792 194.161 11.524 196.321 8.212C198.481 11.524 202.369 13.792 208.021 14.62ZM211.405 16.996H198.733V12.712H193.981V16.996H181.417V20.776H211.405V16.996ZM184.729 23.116V26.86H203.017V34.132H207.769V23.116H184.729ZM244.558 26.464H231.886V19.552H241.354V15.736H222.814V7.024H241.102V3.208H218.026V19.552H227.134V26.464H214.534V30.352H244.558V26.464ZM269.324 4.72V6.34H251.396V14.26H274.58V11.056H256.076V9.328H274.004V1.516H251.324V4.72H269.324ZM277.676 15.844H247.652V19.264H277.676V15.844ZM255.788 30.604V28.804H274.112V20.92H251.036V24.124H269.396V25.816H251.072V33.808H275.012V30.604H255.788ZM290.113 16.78L291.949 20.524C297.745 19.48 301.885 16.708 303.937 12.64C306.097 16.528 309.985 19.3 316.069 20.344L317.869 16.6C310.813 15.556 306.853 11.56 306.457 7.24H316.393V3.46H291.409V7.24H301.345C300.877 11.56 297.133 15.736 290.113 16.78ZM318.949 26.392H306.313V19.084H301.561V26.392H288.925V30.244H318.949V26.392ZM345.01 7.708H339.97V11.488H345.01V17.788H349.762V0.939999H345.01V7.708ZM339.61 17.824L341.806 14.116C336.802 12.676 334.462 9.256 334.354 5.944H340.834V2.164H323.014V5.944H329.53C329.35 9.328 326.902 13.288 321.754 14.8L323.986 18.508C327.874 17.392 330.502 14.908 331.978 11.884C333.454 14.62 335.866 16.78 339.61 17.824ZM350.698 30.064H332.626V28.048H349.762V19.12H327.874V22.792H345.046V24.628H327.946V33.736H350.698V30.064ZM385.939 17.824V13.9H381.187V0.939999H376.435V34.096H381.187V17.824H385.939ZM367.075 5.836V1.516H362.323V5.836H354.979V9.616H374.275V5.836H367.075ZM364.735 11.488C359.911 11.488 356.311 14.764 356.311 19.372C356.311 24.088 359.911 27.328 364.735 27.328C369.523 27.328 373.087 24.088 373.087 19.372C373.087 14.764 369.523 11.488 364.735 11.488ZM364.735 23.44C362.431 23.44 360.847 22 360.847 19.408C360.847 16.816 362.431 15.34 364.735 15.34C367.039 15.34 368.587 16.888 368.587 19.372C368.587 21.964 367.039 23.44 364.735 23.44ZM409.337 22.288L414.089 22.828C415.421 15.808 415.421 11.092 415.421 6.952V3.784H391.337V7.564H410.669C410.669 11.416 410.597 16.06 409.337 22.288ZM418.301 26.284H403.649V14.872H398.897V26.284H388.313V30.1H418.301V26.284ZM460.114 17.248V13.324H456.19V0.868H451.438V34.132H456.19V17.248H460.114ZM434.878 22.036V8.032H438.73V4.252H430.198V25.996H431.89C434.518 25.996 436.642 25.96 439.27 25.42L438.91 21.568C437.47 21.82 436.174 21.928 434.878 22.036ZM445.138 22.036V8.032H449.386V4.252H440.458V25.996H442.222C446.146 25.996 448.018 25.924 450.142 25.348L449.782 21.532C448.342 21.856 447.046 22 445.138 22.036ZM493.447 17.356V13.432H488.695V0.903999H483.943V34.168H488.695V17.356H493.447ZM468.715 22.576V16.564H479.227V3.748H463.999V7.528H474.547V12.82H464.035V26.5H466.843C472.603 26.5 477.139 26.248 482.143 25.384L481.711 21.532C477.391 22.288 473.467 22.54 468.715 22.576ZM524.224 0.903999H519.724V14.44H517.204V1.552H512.776V32.692H517.204V18.256H519.724V34.06H524.224V0.903999ZM506.08 5.944V1.84H501.4V5.944H495.748V9.724H511.588V5.944H506.08ZM503.74 11.164C499.528 11.164 496.468 14.44 496.468 19.084C496.468 23.692 499.528 26.968 503.74 26.968C507.952 26.968 511.012 23.692 511.012 19.084C511.012 14.44 507.952 11.164 503.74 11.164ZM503.74 23.008C501.904 23.008 500.644 21.568 500.644 19.084C500.644 16.6 501.904 15.124 503.74 15.124C505.576 15.124 506.836 16.6 506.836 19.084C506.836 21.568 505.576 23.008 503.74 23.008ZM558.926 26.392H546.254V20.308H555.65V2.992H550.97V8.14H536.786V2.992H532.07V20.308H541.502V26.392H528.902V30.244H558.926V26.392ZM536.786 16.528V11.884H550.97V16.528H536.786ZM590.459 0.939999H585.959V34.096H590.459V0.939999ZM579.227 1.48V12.136H575.087V15.988H579.227V32.62H583.655V1.48H579.227ZM572.603 9.22V3.82H568.031V9.4C568.031 15.052 566.267 20.992 561.407 23.944L564.251 27.508C567.275 25.672 569.183 22.612 570.335 18.868C571.379 22.216 573.071 25.024 575.951 26.752L578.543 23.08C574.043 20.092 572.603 14.584 572.603 9.22ZM625.16 26.392H618.5V18.292C620.984 16.744 622.496 14.368 622.496 11.488C622.496 6.052 617.276 2.56 610.112 2.56C603.02 2.56 597.764 6.052 597.764 11.488C597.728 14.368 599.168 16.744 601.76 18.292V26.392H595.136V30.244H625.16V26.392ZM610.112 6.304C614.72 6.304 617.816 8.176 617.816 11.488C617.816 14.8 614.72 16.672 610.112 16.672C605.504 16.672 602.444 14.8 602.444 11.488C602.444 8.176 605.504 6.304 610.112 6.304ZM606.476 26.392V20.056C607.628 20.272 608.852 20.38 610.112 20.38C611.408 20.38 612.632 20.272 613.784 20.056V26.392H606.476ZM635.093 23.368L635.849 8.644L636.029 3.64H630.701L630.881 8.644L631.637 23.368H635.093ZM636.029 31.504V26.392H630.773V31.504H636.029Z" fill="white"/>
</svg>
