<svg width="520" height="35" viewBox="0 0 520 35" fill="none" xmlns="http://www.w3.org/2000/svg">
<path d="M31.4627 17.968V14.044H27.1067V0.903999H22.3547V34.096H27.1067V17.968H31.4627ZM0.718719 16.024L3.02272 19.732C6.91072 18.58 9.46672 16.168 10.9067 13.144C12.3827 15.88 14.8307 18.04 18.5747 19.084L20.8067 15.412C15.9107 13.972 13.5707 10.768 13.2827 7.42H19.8347V3.568H1.90672V7.42H8.38672C8.09872 11.056 5.75872 14.584 0.718719 16.024ZM13.2467 23.764V18.256H8.45872V23.908C5.57872 23.944 2.91472 23.944 0.574719 23.944L1.11472 27.796C6.69472 27.796 14.0387 27.868 21.0227 26.536L20.6267 23.116C18.2867 23.404 15.8387 23.62 13.2467 23.764ZM48.9919 16.996C56.0479 16.996 60.9799 14.116 60.9799 9.508C60.9799 5.044 56.0479 2.056 48.9919 2.056C41.9359 2.056 37.0039 5.044 37.0039 9.508C37.0039 14.116 41.9359 16.996 48.9919 16.996ZM48.9919 5.836C53.3479 5.836 56.0839 7.06 56.0839 9.508C56.0839 11.956 53.3479 13.216 48.9919 13.216C44.6359 13.216 41.8639 11.956 41.8639 9.508C41.8639 7.06 44.6359 5.836 48.9919 5.836ZM64.0759 23.296V19.48H34.0519V23.296H46.5799V34.132H51.3319V23.296H64.0759ZM97.1931 26.572H84.5211V21.64H94.5651V17.824H75.3411V14.116H93.8091V3.064H70.5891V6.844H89.1291V10.408H70.6251V21.64H79.7691V26.572H67.1691V30.46H97.1931V26.572ZM123.419 14.152C130.763 14.152 135.443 11.776 135.443 7.816C135.443 3.82 130.763 1.444 123.419 1.444C116.111 1.444 111.431 3.82 111.431 7.816C111.431 11.776 116.111 14.152 123.419 14.152ZM123.419 5.044C128.063 5.044 130.547 5.944 130.547 7.816C130.547 9.652 128.063 10.588 123.419 10.588C118.919 10.588 116.327 9.652 116.327 7.816C116.327 5.944 118.919 5.044 123.419 5.044ZM125.795 19.624H138.395V15.844H108.443V19.624H121.043V22.468H111.935V33.7H134.831V22.468H125.795V19.624ZM130.151 26.176V29.992H116.579V26.176H130.151ZM169.1 0.939999H164.312V20.92H169.1V0.939999ZM159.812 19.804L162.224 16.168C156.932 14.44 154.556 10.552 154.448 6.664H161V2.92H142.964V6.664H149.624C149.516 10.768 147.068 14.98 141.704 16.708L144.116 20.416C148.004 19.156 150.632 16.636 152.108 13.324C153.656 16.348 156.068 18.652 159.812 19.804ZM146.528 22.396V26.176H164.312V34.132H169.1V22.396H146.528ZM202.505 0.903999H197.753V7.708H190.697C189.221 4.828 186.773 3.244 183.749 3.244C178.817 3.244 175.181 7.78 175.181 15.052C175.181 22.36 178.817 26.932 183.749 26.932C186.953 26.968 189.509 25.168 190.985 21.856H197.753V34.168H202.505V0.903999ZM183.749 22.612C181.301 22.612 179.681 19.984 179.681 15.052C179.681 10.12 181.301 7.528 183.749 7.528C186.197 7.528 187.853 10.12 187.853 15.052C187.853 19.984 186.197 22.612 183.749 22.612ZM197.753 18.004H192.101C192.245 17.104 192.317 16.096 192.317 15.052C192.317 13.792 192.209 12.604 191.993 11.524H197.753V18.004ZM242.554 14.62L244.282 10.912C236.794 10.048 233.302 6.304 233.302 2.488V1.516H228.442V2.488C228.442 6.232 224.914 10.048 217.426 10.912L219.19 14.62C224.842 13.792 228.694 11.524 230.854 8.212C233.014 11.524 236.902 13.792 242.554 14.62ZM245.938 16.996H233.266V12.712H228.514V16.996H215.95V20.776H245.938V16.996ZM219.262 23.116V26.86H237.55V34.132H242.302V23.116H219.262ZM279.092 26.464H266.42V19.552H275.888V15.736H257.348V7.024H275.636V3.208H252.56V19.552H261.668V26.464H249.068V30.352H279.092V26.464ZM303.857 4.72V6.34H285.929V14.26H309.113V11.056H290.609V9.328H308.537V1.516H285.857V4.72H303.857ZM312.209 15.844H282.185V19.264H312.209V15.844ZM290.321 30.604V28.804H308.645V20.92H285.569V24.124H303.929V25.816H285.605V33.808H309.545V30.604H290.321ZM324.646 16.78L326.482 20.524C332.278 19.48 336.418 16.708 338.47 12.64C340.63 16.528 344.518 19.3 350.602 20.344L352.402 16.6C345.346 15.556 341.386 11.56 340.99 7.24H350.926V3.46H325.942V7.24H335.878C335.41 11.56 331.666 15.736 324.646 16.78ZM353.482 26.392H340.846V19.084H336.094V26.392H323.458V30.244H353.482V26.392ZM379.543 7.708H374.503V11.488H379.543V17.788H384.295V0.939999H379.543V7.708ZM374.143 17.824L376.339 14.116C371.335 12.676 368.995 9.256 368.887 5.944H375.367V2.164H357.547V5.944H364.063C363.883 9.328 361.435 13.288 356.287 14.8L358.519 18.508C362.407 17.392 365.035 14.908 366.511 11.884C367.987 14.62 370.399 16.78 374.143 17.824ZM385.231 30.064H367.159V28.048H384.295V19.12H362.407V22.792H379.579V24.628H362.479V33.736H385.231V30.064ZM418.133 0.903999H413.633V14.44H411.113V1.552H406.685V32.692H411.113V18.256H413.633V34.06H418.133V0.903999ZM399.989 5.944V1.84H395.309V5.944H389.657V9.724H405.497V5.944H399.989ZM397.649 11.164C393.437 11.164 390.377 14.44 390.377 19.084C390.377 23.692 393.437 26.968 397.649 26.968C401.861 26.968 404.921 23.692 404.921 19.084C404.921 14.44 401.861 11.164 397.649 11.164ZM397.649 23.008C395.813 23.008 394.553 21.568 394.553 19.084C394.553 16.6 395.813 15.124 397.649 15.124C399.485 15.124 400.745 16.6 400.745 19.084C400.745 21.568 399.485 23.008 397.649 23.008ZM452.834 26.392H440.162V20.308H449.558V2.992H444.878V8.14H430.694V2.992H425.978V20.308H435.41V26.392H422.81V30.244H452.834V26.392ZM430.694 16.528V11.884H444.878V16.528H430.694ZM484.367 0.939999H479.867V34.096H484.367V0.939999ZM473.135 1.48V12.136H468.995V15.988H473.135V32.62H477.563V1.48H473.135ZM466.511 9.22V3.82H461.939V9.4C461.939 15.052 460.175 20.992 455.315 23.944L458.159 27.508C461.183 25.672 463.091 22.612 464.243 18.868C465.287 22.216 466.979 25.024 469.859 26.752L472.451 23.08C467.951 20.092 466.511 14.584 466.511 9.22ZM519.068 26.392H512.408V18.292C514.892 16.744 516.404 14.368 516.404 11.488C516.404 6.052 511.184 2.56 504.02 2.56C496.928 2.56 491.672 6.052 491.672 11.488C491.636 14.368 493.076 16.744 495.668 18.292V26.392H489.044V30.244H519.068V26.392ZM504.02 6.304C508.628 6.304 511.724 8.176 511.724 11.488C511.724 14.8 508.628 16.672 504.02 16.672C499.412 16.672 496.352 14.8 496.352 11.488C496.352 8.176 499.412 6.304 504.02 6.304ZM500.384 26.392V20.056C501.536 20.272 502.76 20.38 504.02 20.38C505.316 20.38 506.54 20.272 507.692 20.056V26.392H500.384Z" fill="white"/>
</svg>
