<svg xmlns="http://www.w3.org/2000/svg" viewBox="0 0 242.43 41.26"><g id="레이어_2" data-name="레이어 2"><g id="레이어_1-2" data-name="레이어 1"><path d="M12.82,23.54q-5.13-.81-6.95-3.69t-.68-7.16A14,14,0,0,1,8.5,6.59a16.74,16.74,0,0,1,5.72-3.92,31.59,31.59,0,0,1,7.52-2A62.54,62.54,0,0,1,30.9,0Q43.43,0,48.49,3.16c3.38,2.11,4.65,5.26,3.81,9.48H34.58a2.32,2.32,0,0,0-1.49-3.08,10.33,10.33,0,0,0-4.54-.81,12.32,12.32,0,0,0-4.86.73,3.17,3.17,0,0,0-2,2c-.31,1.16.18,1.82,1.47,2l17.47,2.7c3.8.58,6.54,1.8,8.2,3.67s2.06,4.39,1.21,7.56a15.77,15.77,0,0,1-8.79,10.45q-6.9,3.38-19.7,3.38a78.11,78.11,0,0,1-9.13-.49,25.27,25.27,0,0,1-7.15-1.84,8.91,8.91,0,0,1-4.5-4Q-.6,32.35.47,28.3H18.83a2.41,2.41,0,0,0,.89,2.75,11.13,11.13,0,0,0,5,.81,11.28,11.28,0,0,0,4.92-.81,3.63,3.63,0,0,0,2-2.32,2,2,0,0,0-.2-1.68,2.6,2.6,0,0,0-1.86-.91Z"/><path d="M69.62,11.07H55.52l2.61-9.72h43.42l-2.61,9.72H84.85L77.12,39.91H61.89Z"/><path d="M120.24,13h-.11l-16.71,26.9H87.22L114,1.35h18.68l6.08,38.56h-16.2Z"/><path d="M151,1.35h32.07a36.27,36.27,0,0,1,5.34.32,10.53,10.53,0,0,1,3.41,1.08,6.08,6.08,0,0,1,2.75,3.68,10,10,0,0,1,0,5.67,13.89,13.89,0,0,1-2.89,5.45,10.66,10.66,0,0,1-5.41,3.35l0,.11a3.89,3.89,0,0,1,2.44,2A6.2,6.2,0,0,1,189,27l-1.61,8.42a7.09,7.09,0,0,0,0,2.43,6.56,6.56,0,0,0,.71,2.11H171.46a4.61,4.61,0,0,1,0-1.73c.12-.72.35-1.91.68-3.57.12-.57.26-1.24.43-2a5.16,5.16,0,0,0-.11-3.43c-.4-.78-1.27-1.16-2.6-1.16h-10.8l-3.18,11.88H140.68Zm10.68,17h10.8q4.22,0,5.18-3.62c.37-1.37.24-2.31-.4-2.84a4.79,4.79,0,0,0-3.05-.78H163.63Z"/><path d="M210.5,11.07H196.41L199,1.35h43.42l-2.6,9.72h-14.1L218,39.91H202.78Z"/></g></g></svg>