<svg width="412" height="150" viewBox="0 0 412 150" fill="none" xmlns="http://www.w3.org/2000/svg">
<path d="M104.769 67.6924L104.769 78.077L115.154 78.077" stroke="#92FF22" stroke-width="4" stroke-miterlimit="10" stroke-linecap="round" stroke-linejoin="round"/>
<path d="M125.538 78.077C125.538 89.5527 116.245 98.8462 104.769 98.8462C93.2935 98.8462 84 89.5527 84 78.077C84 66.6013 93.2935 57.3077 104.769 57.3077" stroke="#92FF22" stroke-width="4" stroke-miterlimit="10" stroke-linecap="round"/>
<path d="M104.769 49L104.769 57.3077" stroke="#92FF22" stroke-width="4" stroke-miterlimit="10"/>
<path d="M100.617 49L108.924 49" stroke="#92FF22" stroke-width="4" stroke-miterlimit="10" stroke-linecap="round"/>
<path d="M125.538 78.077C125.538 66.6064 116.24 57.3077 104.769 57.3077" stroke="#95FF22" stroke-width="4" stroke-linecap="round" stroke-dasharray="7 7"/>
<path d="M183.677 61.0579L179.177 61.0579L179.177 73.7659H176.477L176.477 61.5979L172.049 61.5979L172.049 83.0539C167.153 80.4619 165.497 75.0259 165.497 69.1939V68.2939H170.465L170.465 64.4419L155.453 64.4419L155.453 68.2939L160.889 68.2939V69.1939C160.889 75.5299 159.305 81.4339 154.373 84.3139L157.217 87.9139C160.385 86.0779 162.221 83.0179 163.337 79.1299C164.525 82.4419 166.361 85.1059 169.385 86.6899L172.049 83.1259V92.7379L176.477 92.7379L176.477 77.6539H179.177L179.177 94.2139L183.677 94.2139L183.677 61.0579ZM209.27 80.3179L209.27 72.9739H211.862L211.862 81.3619L216.362 81.3619L216.362 61.0939L211.862 61.0939L211.862 69.1579H209.27L209.27 61.7059L204.842 61.7059L204.842 80.3179L209.27 80.3179ZM202.286 79.4179L204.806 75.8179C200.45 74.0899 198.65 70.4899 198.65 66.9259V63.0739L194.078 63.0739V66.9259C194.078 70.6699 192.242 74.7739 187.634 76.7899L190.154 80.4619C193.214 79.1659 195.266 76.8619 196.454 73.9819C197.642 76.4299 199.55 78.3019 202.286 79.4179ZM205.13 81.8659C198.146 81.8659 193.682 84.2059 193.682 88.0579C193.682 91.9459 198.146 94.2859 205.13 94.2859C212.078 94.2859 216.506 91.9459 216.506 88.0579C216.506 84.2059 212.078 81.8659 205.13 81.8659ZM205.13 90.6859C200.774 90.6859 198.434 89.8219 198.434 88.0579C198.434 86.2939 200.774 85.4299 205.13 85.4299C209.558 85.4299 211.754 86.2939 211.754 88.0579C211.754 89.8219 209.558 90.6859 205.13 90.6859ZM260.155 77.5819V73.6579L255.331 73.6579L255.331 61.0939L250.579 61.0939L250.579 94.2859H255.331L255.331 77.5819L260.155 77.5819ZM235.423 82.9459L235.423 76.7899L245.791 76.7899V73.0819L235.423 73.0819L235.423 67.6819L246.259 67.6819V63.8299L230.671 63.8299L230.671 86.7619L233.479 86.7619C239.239 86.7619 243.595 86.6179 248.671 85.8619L248.239 82.0819C243.919 82.7659 240.067 82.9459 235.423 82.9459ZM289.96 61.0579L285.208 61.0579L285.208 94.3219H289.96L289.96 61.0579ZM272.14 63.3979C267.136 63.3979 263.428 67.9339 263.428 75.2059C263.428 82.5139 267.136 87.0859 272.14 87.0859C277.144 87.0859 280.852 82.5139 280.852 75.2059C280.852 67.9339 277.144 63.3979 272.14 63.3979ZM272.14 67.6819C274.588 67.6819 276.28 70.2739 276.28 75.2059C276.28 80.1379 274.588 82.7659 272.14 82.7659C269.692 82.7659 268 80.1379 268 75.2059C268 70.2739 269.692 67.6819 272.14 67.6819ZM323.438 61.0939L318.686 61.0939V72.5059L312.602 72.5059V64.0099L296.834 64.0099L296.834 86.1859L312.602 86.1859L312.602 76.3219L318.686 76.3219L318.686 94.3219H323.438L323.438 61.0939ZM307.922 67.7179L307.922 82.4419L301.514 82.4419L301.514 67.7179L307.922 67.7179Z" fill="#95FF22"/>
</svg>
