<svg width="775" height="35" viewBox="0 0 775 35" fill="none" xmlns="http://www.w3.org/2000/svg">
<path d="M29.6913 17.428V13.504H24.8673V0.939999H20.1153V34.132H24.8673V17.428H29.6913ZM4.95928 22.792V16.636H15.3273V12.928H4.95928V7.528H15.7953V3.676H0.207281V26.608H3.01528C8.77528 26.608 13.1313 26.464 18.2073 25.708L17.7753 21.928C13.4553 22.612 9.60328 22.792 4.95928 22.792ZM59.4965 0.903999H54.7445V34.168H59.4965V0.903999ZM41.6765 3.244C36.6725 3.244 32.9645 7.78 32.9645 15.052C32.9645 22.36 36.6725 26.932 41.6765 26.932C46.6805 26.932 50.3885 22.36 50.3885 15.052C50.3885 7.78 46.6805 3.244 41.6765 3.244ZM41.6765 7.528C44.1245 7.528 45.8165 10.12 45.8165 15.052C45.8165 19.984 44.1245 22.612 41.6765 22.612C39.2285 22.612 37.5365 19.984 37.5365 15.052C37.5365 10.12 39.2285 7.528 41.6765 7.528ZM92.9737 0.939999H88.2217V12.352H82.1377V3.856H66.3697V26.032H82.1377V16.168H88.2217V34.168H92.9737V0.939999ZM77.4577 7.564V22.288H71.0497V7.564H77.4577ZM119.935 4.72V6.34H102.007V14.26H125.191V11.056H106.687V9.328H124.615V1.516H101.935V4.72H119.935ZM128.287 15.844H98.2628V19.264H128.287V15.844ZM106.399 30.604V28.804H124.723V20.92H101.647V24.124H120.007V25.816H101.683V33.808H125.623V30.604H106.399ZM162.504 9.58V17.788H167.256V0.939999H162.504V5.8H156.456V9.58H162.504ZM156.924 17.392L159.336 13.756C154.152 12.208 151.884 8.284 151.884 4.396V2.02H147.096V4.396C147.096 8.608 144.792 12.676 139.284 14.332L141.732 18.04C145.512 16.852 148.104 14.476 149.58 11.308C150.984 14.08 153.432 16.276 156.924 17.392ZM168.192 30.028H150.12V28.084H167.256V19.192H145.404V22.828H162.576V24.664H145.44V33.736H168.192V30.028ZM195.621 8.932H190.653V12.784H195.621V20.668H200.373V0.939999H195.621V8.932ZM190.329 19.768L192.633 16.06C187.593 14.404 185.253 10.48 185.145 6.736H191.589V2.92H173.769V6.736H180.285C180.105 10.876 177.765 15.088 172.473 16.924L174.885 20.668C178.773 19.372 181.365 16.672 182.805 13.324C184.245 16.24 186.729 18.58 190.329 19.768ZM189.177 21.388C182.121 21.388 177.801 23.728 177.801 27.76C177.801 31.792 182.121 34.132 189.177 34.132C196.197 34.132 200.517 31.792 200.517 27.76C200.517 23.728 196.197 21.388 189.177 21.388ZM189.177 30.532C184.749 30.532 182.553 29.596 182.553 27.76C182.553 25.924 184.749 24.988 189.177 24.988C193.569 24.988 195.765 25.924 195.765 27.76C195.765 29.596 193.569 30.532 189.177 30.532ZM236.551 17.824V13.9H231.799V0.939999H227.047V34.096H231.799V17.824H236.551ZM217.687 5.836V1.516H212.935V5.836H205.591V9.616H224.887V5.836H217.687ZM215.347 11.488C210.523 11.488 206.923 14.764 206.923 19.372C206.923 24.088 210.523 27.328 215.347 27.328C220.135 27.328 223.699 24.088 223.699 19.372C223.699 14.764 220.135 11.488 215.347 11.488ZM215.347 23.44C213.043 23.44 211.459 22 211.459 19.408C211.459 16.816 213.043 15.34 215.347 15.34C217.651 15.34 219.199 16.888 219.199 19.372C219.199 21.964 217.651 23.44 215.347 23.44ZM259.948 22.288L264.7 22.828C266.032 15.808 266.032 11.092 266.032 6.952V3.784H241.948V7.564H261.28C261.28 11.416 261.208 16.06 259.948 22.288ZM268.912 26.284H254.26V14.872H249.508V26.284H238.924V30.1H268.912V26.284ZM310.653 10.444H306.261V0.939999H301.509V25.06H306.261V14.332H310.653V10.444ZM298.377 11.488C298.377 6.592 294.453 3.064 289.413 3.064C284.337 3.064 280.413 6.592 280.413 11.488C280.413 16.348 284.337 19.912 289.413 19.912C294.453 19.912 298.377 16.348 298.377 11.488ZM285.057 11.488C285.057 8.752 286.929 7.168 289.413 7.168C291.861 7.168 293.769 8.752 293.769 11.488C293.769 14.224 291.861 15.808 289.413 15.808C286.929 15.808 285.057 14.224 285.057 11.488ZM289.629 29.74V22.576H284.877V33.52H307.449V29.74H289.629ZM339.702 15.952V2.56H316.734V15.952H339.702ZM335.058 6.304V12.208H321.414V6.304H335.058ZM343.302 23.26V19.48H313.278V23.26H325.806V34.096H330.558V23.26H343.302ZM374.044 0.903999H369.292V34.168H374.044V0.903999ZM357.052 3.136C351.868 3.136 347.944 6.556 347.944 11.308C347.944 16.06 351.868 19.48 357.052 19.48C362.236 19.48 366.196 16.06 366.196 11.308C366.196 6.556 362.236 3.136 357.052 3.136ZM357.052 7.204C359.644 7.204 361.552 8.716 361.552 11.308C361.552 13.9 359.644 15.412 357.052 15.412C354.46 15.412 352.552 13.9 352.552 11.308C352.552 8.716 354.46 7.204 357.052 7.204ZM346.54 23.584L347.152 27.436C352.876 27.436 360.652 27.364 367.78 25.924L367.492 22.504C360.508 23.548 352.372 23.584 346.54 23.584ZM415.137 0.903999H410.385V34.168H415.137V0.903999ZM400.521 8.32V3.496H395.769V8.32C395.769 14.8 393.033 21.136 387.237 23.656L390.081 27.58C394.149 25.708 396.741 22.216 398.217 17.716C399.693 21.784 402.177 25.06 406.065 26.788L408.765 22.936C403.149 20.524 400.521 14.476 400.521 8.32ZM451.278 12.856V8.932H446.886V0.939999H442.134V20.92H446.886V12.856H451.278ZM438.174 19.768L440.586 16.096C435.402 14.368 433.098 10.552 432.99 6.664H439.47V2.884H421.542V6.664H428.13C428.022 10.804 425.682 14.944 420.282 16.672L422.766 20.38C426.654 19.12 429.174 16.564 430.65 13.36C432.09 16.276 434.574 18.616 438.174 19.768ZM424.746 22.396V26.176H442.134V34.132H446.886V22.396H424.746ZM492.084 16.528H479.448V13.792H488.664V10.012H470.448V6.124H488.484V2.344H465.732V13.792H474.696V16.528H462.096V20.308H492.084V16.528ZM476.964 21.928C469.8 21.928 465.48 24.124 465.48 28.048C465.48 31.936 469.8 34.132 476.964 34.132C484.128 34.132 488.484 31.936 488.484 28.048C488.484 24.124 484.128 21.928 476.964 21.928ZM476.964 30.532C472.464 30.532 470.268 29.776 470.268 28.048C470.268 26.356 472.5 25.528 476.964 25.528C481.428 25.528 483.66 26.356 483.66 28.048C483.66 29.776 481.464 30.532 476.964 30.532ZM525.669 12.856V8.932H521.277V0.939999H516.525V20.92H521.277V12.856H525.669ZM512.565 19.768L514.977 16.096C509.793 14.368 507.489 10.552 507.381 6.664H513.861V2.884H495.933V6.664H502.521C502.413 10.804 500.073 14.944 494.673 16.672L497.157 20.38C501.045 19.12 503.565 16.564 505.041 13.36C506.481 16.276 508.965 18.616 512.565 19.768ZM499.137 22.396V26.176H516.525V34.132H521.277V22.396H499.137ZM543.27 12.712C551.154 12.712 555.294 10.804 555.294 7.06C555.294 3.424 551.154 1.408 543.27 1.408C535.458 1.408 531.282 3.424 531.282 7.06C531.282 10.804 535.458 12.712 543.27 12.712ZM543.27 4.9C548.202 4.9 550.362 5.584 550.362 7.06C550.362 8.608 548.202 9.256 543.27 9.256C538.482 9.256 536.214 8.608 536.214 7.06C536.214 5.584 538.482 4.9 543.27 4.9ZM558.246 14.296H528.294V18.004H558.246V14.296ZM536.466 30.28V28.408H554.61V19.876H531.714V23.368H549.93V25.132H531.75V33.844H555.474V30.28H536.466ZM570.9 12.172L572.592 15.88C578.82 15.196 582.852 12.676 584.544 9.256C586.308 12.712 590.124 15.196 596.496 15.88L598.224 12.172C591.708 11.488 588.504 8.788 587.928 6.124H596.856V2.344H572.304V6.124H581.196C580.62 8.716 577.308 11.488 570.9 12.172ZM599.592 17.464H569.532V21.208H582.6V26.824H587.352V21.208H599.592V17.464ZM577.776 29.74V23.98H573.024V33.52H596.244V29.74H577.776ZM630.153 0.903999H625.401V34.168H630.153V0.903999ZM609.021 3.568H604.305V26.428H620.649V3.568H615.933V11.596H609.021V3.568ZM609.021 22.648V15.304H615.933V22.648H609.021ZM664.242 0.903999H659.742V14.44H657.222V1.552H652.794V32.692H657.222V18.256H659.742V34.06H664.242V0.903999ZM646.098 5.944V1.84H641.418V5.944H635.766V9.724H651.606V5.944H646.098ZM643.758 11.164C639.546 11.164 636.486 14.44 636.486 19.084C636.486 23.692 639.546 26.968 643.758 26.968C647.97 26.968 651.03 23.692 651.03 19.084C651.03 14.44 647.97 11.164 643.758 11.164ZM643.758 23.008C641.922 23.008 640.662 21.568 640.662 19.084C640.662 16.6 641.922 15.124 643.758 15.124C645.594 15.124 646.854 16.6 646.854 19.084C646.854 21.568 645.594 23.008 643.758 23.008ZM698.943 26.392H686.271V20.308H695.667V2.992H690.987V8.14H676.803V2.992H672.087V20.308H681.519V26.392H668.919V30.244H698.943V26.392ZM676.803 16.528V11.884H690.987V16.528H676.803ZM730.476 0.939999H725.976V34.096H730.476V0.939999ZM719.244 1.48V12.136H715.104V15.988H719.244V32.62H723.672V1.48H719.244ZM712.62 9.22V3.82H708.048V9.4C708.048 15.052 706.284 20.992 701.424 23.944L704.268 27.508C707.292 25.672 709.2 22.612 710.352 18.868C711.396 22.216 713.088 25.024 715.968 26.752L718.56 23.08C714.06 20.092 712.62 14.584 712.62 9.22ZM765.177 26.392H758.517V18.292C761.001 16.744 762.513 14.368 762.513 11.488C762.513 6.052 757.293 2.56 750.129 2.56C743.037 2.56 737.781 6.052 737.781 11.488C737.745 14.368 739.185 16.744 741.777 18.292V26.392H735.153V30.244H765.177V26.392ZM750.129 6.304C754.737 6.304 757.833 8.176 757.833 11.488C757.833 14.8 754.737 16.672 750.129 16.672C745.521 16.672 742.461 14.8 742.461 11.488C742.461 8.176 745.521 6.304 750.129 6.304ZM746.493 26.392V20.056C747.645 20.272 748.869 20.38 750.129 20.38C751.425 20.38 752.649 20.272 753.801 20.056V26.392H746.493ZM774.319 31.504V26.392H769.063V31.504H774.319Z" fill="white"/>
</svg>
